# xmcd
#
# Track frame offsets: 
#        150
#        25651
#        46995
#        65489
#        85960
#        109558
#        144629
#        163988
#        188345
#        212969
#        237808
#        260124
#        282946
#        308426
#
# Disc length: 4438 seconds
#
# Revision: 0
# Processed by: cddbd v1.5.2PL0 Copyright (c) Steve Scherf et al.
# Submitted via: ExactAudioCopyFreeDBPlugin 1.0
#
DISCID=c111540e
DTITLE=Cam Ly - Mai khong phai
DYEAR=1900
DGENRE=
TTITLE0=Co le
TTITLE1=Con toi voi toi
TTITLE2=Mi khong phai
TTITLE3=Dau chan tinh buon
TTITLE4=Lang le goi ten
TTITLE5=Nguoi thay
TTITLE6=Nhung anh chang ngo nhan
TTITLE7=Lang quen
TTITLE8=Tro lai pho cu
TTITLE9=Bo ben la
TTITLE10=Tinh buon
TTITLE11=Nguoi ve cuoi pho
TTITLE12=Ngay ve
TTITLE13=Tro lai pho cu
EXTD=
EXTT0=
EXTT1=
EXTT2=
EXTT3=
EXTT4=
EXTT5=
EXTT6=
EXTT7=
EXTT8=
EXTT9=
EXTT10=
EXTT11=
EXTT12=
EXTT13=
PLAYORDER=
